<?xml version="1.0" encoding="utf-8"?>
<!-- Generator: Adobe Illustrator 15.1.0, SVG Export Plug-In . SVG Version: 6.00 Build 0)  -->
<!DOCTYPE svg PUBLIC "-//W3C//DTD SVG 1.1//EN" "http://www.w3.org/Graphics/SVG/1.1/DTD/svg11.dtd">
<svg version="1.1" id="Layer_1" xmlns="http://www.w3.org/2000/svg" xmlns:xlink="http://www.w3.org/1999/xlink" x="0px" y="0px"
	 width="600px" height="350px" viewBox="0 0 600 350" enable-background="new 0 0 600 350" xml:space="preserve">
<g>
	<g>
		<path fill="#363D46" d="M7,280.621v-54.019h17.685l4.799,22.973c0.026,0.121,0.214,1.563,0.581,4.334
			c0.365,2.771,0.741,5.543,1.141,8.322c0.301-2.071,0.683-4.654,1.139-7.725c0.456-3.076,0.717-4.775,0.787-5.101l4.775-22.804
			h17.5v54.019H43.481l1.085-41.746l-8.56,41.746h-9.604l-8.562-41.746l1.087,41.746H7z"/>
	</g>
	<g>
		<path fill="#363D46" d="M60.425,280.621l11.784-54.019h15.012l11.65,54.019H86.24l-1.578-10.352h-9.926l-1.583,10.352H60.425z
			 M76.033,260.518h7.26l-3.615-23.569L76.033,260.518z"/>
	</g>
	<g>
		<polygon fill="#363D46" points="103.813,280.621 103.813,226.603 116.446,226.603 116.446,247.019 126.578,247.019 
			126.578,226.603 138.925,226.603 138.925,280.621 126.578,280.621 126.578,258.206 116.446,258.206 116.446,280.621 		"/>
	</g>
	<g>
		<path fill="#363D46" d="M143.801,280.621l11.789-54.019h15.007l11.648,54.019h-12.627l-1.581-10.352h-9.923l-1.579,10.352H143.801
			z M159.411,260.518h7.26l-3.613-23.569L159.411,260.518z"/>
	</g>
	<g>
		<path fill="#363D46" d="M185.543,262.309h11.575v1.579c0,2.972,0.353,5.061,1.049,6.276c0.703,1.22,1.886,1.825,3.544,1.825
			c1.33,0,2.389-0.46,3.16-1.384c0.767-0.925,1.156-2.181,1.156-3.781c0-2.604-1.884-5.12-5.648-7.531
			c-0.61-0.425-1.073-0.742-1.4-0.949l-0.597-0.383c-5.074-3.414-8.234-5.985-9.472-7.718c-0.886-1.313-1.563-2.777-2.035-4.42
			c-0.465-1.631-0.698-3.423-0.698-5.362c0-4.725,1.365-8.439,4.1-11.121c2.74-2.695,6.501-4.04,11.3-4.04
			c5.213,0,9.195,1.328,11.942,3.964c2.744,2.647,4.12,6.473,4.12,11.469c0,0.213-0.012,0.5-0.036,0.882
			c-0.023,0.377-0.038,0.663-0.038,0.877h-11.327v-0.669c0-2.363-0.365-4.147-1.102-5.36c-0.739-1.221-1.806-1.832-3.213-1.832
			c-1.188,0-2.153,0.431-2.875,1.286c-0.72,0.851-1.085,1.979-1.085,3.381c0,2.301,2.059,4.725,6.168,7.295
			c0.752,0.489,1.321,0.874,1.723,1.125c0.325,0.183,0.783,0.48,1.367,0.878c4.42,2.801,7.249,5.174,8.491,7.081
			c0.767,1.239,1.364,2.654,1.767,4.229c0.408,1.579,0.616,3.294,0.616,5.137c0,5.398-1.405,9.567-4.207,12.49
			c-2.811,2.919-6.82,4.381-12.036,4.381c-5.468,0-9.582-1.394-12.328-4.187c-2.75-2.797-4.123-6.952-4.123-12.47
			c0-0.357,0.006-0.729,0.018-1.104C185.433,263.765,185.471,263.151,185.543,262.309"/>
	</g>
	<g>
		<path fill="#363D46" d="M224.901,226.603h12.765v33.844c0,5.122,0.327,8.295,0.967,9.509c0.645,1.222,1.783,1.826,3.419,1.826
			c1.663,0,2.809-0.637,3.435-1.896c0.635-1.265,0.947-4.409,0.947-9.439v-33.844h12.526v34.481c0,3.9-0.172,6.82-0.513,8.754
			c-0.334,1.922-0.886,3.6-1.664,5.024c-1.289,2.44-3.147,4.223-5.572,5.356c-2.436,1.129-5.604,1.694-9.507,1.694
			c-3.6,0-6.541-0.525-8.804-1.592c-2.27-1.059-4.07-2.765-5.403-5.107c-0.96-1.655-1.63-3.792-2.014-6.382
			c-0.391-2.595-0.581-6.976-0.581-13.156V226.603z"/>
	</g>
	<g>
		<polygon fill="#363D46" points="267.728,280.621 267.728,226.603 280.358,226.603 280.358,249.017 289.792,226.603 
			302.698,226.603 290.985,250.243 302.979,280.621 289.727,280.621 283.089,261.084 280.358,266.237 280.358,280.621 		"/>
	</g>
	<g>
		<polygon fill="#363D46" points="306.524,280.621 306.524,226.603 319.15,226.603 319.15,247.019 329.286,247.019 329.286,226.603 
			341.633,226.603 341.633,280.621 329.286,280.621 329.286,258.206 319.15,258.206 319.15,280.621 		"/>
	</g>
	<g>
		<path fill="#363D46" d="M346.508,280.621l11.791-54.019h15.005l11.648,54.019h-12.626l-1.579-10.352h-9.929l-1.576,10.352H346.508
			z M362.122,260.518h7.259l-3.618-23.569L362.122,260.518z"/>
	</g>
	<g>
		<polygon fill="#363D46" points="415.745,280.621 415.745,237.093 405.648,237.093 405.648,226.603 439.042,226.603 
			439.042,237.093 428.417,237.093 428.417,280.621 		"/>
	</g>
	<g>
		<path fill="#363D46" d="M444.195,280.621v-54.019h14.206c4.659,0,8.034,0.21,10.142,0.646c2.101,0.431,3.808,1.176,5.118,2.229
			c1.54,1.266,2.696,2.816,3.456,4.667c0.761,1.842,1.142,4.045,1.142,6.588c0,3.117-0.548,5.719-1.633,7.821
			c-1.084,2.104-2.778,3.835-5.068,5.192c3.909,1.734,5.957,5.839,6.174,12.315v0.176c0.021,0.676,0.048,1.66,0.07,2.947
			c0.092,6.082,1.097,9.893,3.021,11.437h-14.776c-0.322-1.123-0.567-2.297-0.716-3.525c-0.154-1.229-0.23-2.542-0.23-3.947
			c0-0.868,0.027-1.913,0.076-3.141c0.048-1.23,0.072-2.034,0.072-2.401c0-3.296-0.439-5.558-1.301-6.771
			c-0.867-1.214-2.418-1.831-4.666-1.831h-2.602v21.617H444.195z M456.68,249.087c0.22,0,0.492,0.006,0.828,0.032
			c0.337,0.019,0.592,0.038,0.758,0.038c2.619,0,4.478-0.525,5.555-1.584c1.089-1.051,1.636-2.823,1.636-5.328
			c0-2.317-0.547-3.96-1.636-4.932c-1.077-0.965-2.936-1.448-5.555-1.448c-0.166,0-0.421,0.007-0.758,0.031
			c-0.336,0.02-0.608,0.031-0.828,0.031V249.087z"/>
	</g>
	<g>
		<polygon fill="#363D46" points="486.291,280.621 486.291,226.603 515.686,226.603 515.686,237.093 498.847,237.093 
			498.847,247.019 514.388,247.019 514.388,257.856 498.847,257.856 498.847,269.646 515.686,269.646 515.686,280.621 		"/>
	</g>
	<g>
		<polygon fill="#363D46" points="523.506,280.621 523.506,226.603 536.138,226.603 536.138,249.017 545.57,226.603 
			558.481,226.603 546.761,250.243 558.763,280.621 545.496,280.621 538.872,261.084 536.138,266.237 536.138,280.621 		"/>
	</g>
	<g>
		<path fill="#363D46" d="M560.653,262.309h11.574v1.579c0,2.972,0.348,5.061,1.055,6.276c0.706,1.22,1.882,1.825,3.537,1.825
			c1.337,0,2.389-0.46,3.16-1.384c0.772-0.925,1.159-2.181,1.159-3.781c0-2.604-1.884-5.12-5.649-7.531
			c-0.609-0.425-1.075-0.742-1.4-0.949l-0.605-0.383c-5.068-3.414-8.222-5.985-9.461-7.718c-0.89-1.313-1.566-2.777-2.04-4.42
			c-0.467-1.631-0.7-3.423-0.7-5.362c0-4.725,1.368-8.439,4.113-11.121c2.73-2.695,6.497-4.04,11.292-4.04
			c5.21,0,9.193,1.328,11.938,3.964c2.753,2.647,4.119,6.473,4.119,11.469c0,0.213-0.014,0.5-0.03,0.882
			c-0.023,0.377-0.038,0.663-0.038,0.877h-11.325v-0.669c0-2.363-0.368-4.147-1.11-5.36c-0.737-1.221-1.801-1.832-3.204-1.832
			c-1.196,0-2.157,0.431-2.885,1.286c-0.722,0.851-1.081,1.979-1.081,3.381c0,2.301,2.06,4.725,6.173,7.295
			c0.743,0.489,1.323,0.874,1.717,1.125c0.33,0.183,0.785,0.48,1.369,0.878c4.42,2.801,7.253,5.174,8.49,7.081
			c0.769,1.239,1.361,2.654,1.773,4.229c0.404,1.579,0.607,3.294,0.607,5.137c0,5.398-1.399,9.567-4.208,12.49
			c-2.809,2.919-6.814,4.381-12.032,4.381c-5.47,0-9.58-1.394-12.324-4.187c-2.752-2.797-4.124-6.952-4.124-12.47
			c0-0.357,0.009-0.729,0.016-1.104C560.541,263.765,560.582,263.151,560.653,262.309"/>
	</g>
</g>
<g>
	<g>
		<path fill="#52AD32" d="M132.156,314.188c-2.923,8.669-4.855,15.58-5.735,20.789l-3.394-1.292
			c-0.056-2.396,0.116-4.979,0.525-7.608c0.532-3.808,1.344-7.436,2.344-10.767l0.759-2.578c0.645-2.049,1.41-4.442,2.402-7.081
			c1.052-2.756,1.931-5.036,2.69-6.852l-3.215,0.936c-2.05,0.649-4.686,1.586-7.965,2.814l-2.108-2.34
			c1.642-0.942,6.789-3.097,13.993-5.677c3.567-1.292,7.547-2.405,11.825-3.275c4.327-0.941,8.132-1.41,11.469-1.346l4.154,4.854
			c-0.461-0.058-1.23-0.058-2.279-0.058c-1.405,0-2.928,0.058-4.567,0.174c-4.624,0.415-9.365,1.113-14.34,2.231l-3.045,7.248
			c-0.527,1.225-1.344,3.514-2.458,6.853L132.156,314.188z"/>
	</g>
	<g>
		<path fill="#52AD32" d="M155.103,310.456c0.406,0.228,0.523,0.524,0.406,0.872c-0.056,0.24-0.641,1.523-1.694,3.918
			c-1.056,2.353-1.641,3.807-1.76,4.336l-3.102-2.873l0.472-2.277c0.175-0.994,0.409-1.871,0.644-2.692
			c-0.704,0.993-1.175,1.698-1.409,2.105c-0.41,0.533-0.931,1.401-1.635,2.576c-0.471,0.76-1.291,2.221-2.4,4.276
			c-1.111,2.047-2.223,4.211-3.396,6.493l-1.878,3.689l-1.166,2.05l-3.394-2.228c0-0.064,0.234-1.29,0.698-3.572
			c0.414-2.28,1-5.029,1.641-8.136c0.646-3.156,1.236-5.557,1.644-7.197c0.702-2.398,1.167-3.688,1.346-3.748
			c0.641,0.358,1.581,0.825,2.81,1.35c1.226,0.525,2.048,0.934,2.396,1.115l-0.348,0.872c-0.757,1.811-1.291,3.34-1.698,4.628
			c-0.407,1.167-0.821,2.628-1.281,4.442l-1.004,3.983l0.414-0.583l1.167-2.223c4.451-8.315,7.141-12.821,8.02-13.469
			c0.179-0.174,0.53-0.116,0.934,0.125L155.103,310.456z"/>
	</g>
	<g>
		<path fill="#52AD32" d="M180.737,318.882l-8.073,13.864l-0.246-0.053c-0.112,0-0.343-0.057-0.692-0.171
			c-0.533-0.124-1.114-0.358-1.876-0.7c-1.635-0.766-2.694-1.704-3.097-2.758c-0.12-0.234-0.181-0.586-0.181-1.11
			c-0.055-0.646,0-1.995,0.181-4.044c-1.291,2.227-2.698,4.277-4.218,6.208c-1.524,1.873-2.519,2.812-3.046,2.812
			c-0.284,0-1.109-0.358-2.344-1.107c-1.226-0.766-2.107-1.355-2.575-1.882c-0.404-0.412-0.755-2.571-0.524-4.678
			c0.471-5.444,2.64-10.418,5.159-13.174c2.506-2.758,5.081-4.269,6.781-4.269c0.647,0,1.811,1.054,3.511,3.16
			c0.416-1.463,0.819-2.399,1.173-2.932l5.269,2.465l-0.414,0.872c-0.525,1.175-1.057,2.695-1.695,4.628l-1.226,4.442
			c-0.473,1.703-0.828,3.105-1.062,4.159l-0.873,3.917c-0.234,1.177-0.234,1.873,0.411,2.105l0.461,0.242
			c4.163-6.852,6.972-11.587,8.313-14.28L180.737,318.882z M162.535,327.427c1.693-2.047,3.22-4.162,4.558-6.205
			c0.472-2.927,1.173-6.026,2.116-9.314c-0.409-0.223-0.766-0.339-1.174-0.339c-2.224,0-4.389,1.692-6.436,5.141
			c-2.049,3.456-2.985,7.319-2.865,11.598c0.052,1.222,0.289,1.986,0.697,2.219C159.84,330.525,160.838,329.473,162.535,327.427"/>
	</g>
	<g>
		<path fill="#52AD32" d="M198.294,310.456v0.758c-2.986,5.907-4.976,9.774-6.031,11.53c-0.584,0.993-1.984,3.04-4.269,6.086
			c-0.528,0.759-1.344,1.575-2.4,2.567c-1.056,1.001-1.758,1.532-2.167,1.647c-0.287,0.056-0.759-0.115-1.402-0.408
			c-0.765-0.297-1.586-0.878-2.58-1.64c-0.589-0.53-0.993-0.997-1.164-1.524c-0.183-0.525-0.3-1.113-0.355-1.691
			c-0.061-1.349-0.114-2.346-0.061-2.987c0.18-3.927,1.052-8.312,2.698-13.17c0-0.238,1.4-4.156,1.696-3.868l2.979,1.408
			l2.345,1.053c-0.175,0.239-0.291,0.529-0.412,0.935c-0.521,1.346-1.105,2.93-1.696,4.799c-0.291,0.996-0.759,2.523-1.291,4.569
			l-1.044,4.274l-0.881,4.098c-0.123,1.055-0.123,1.693,0.056,1.935l0.703,0.408h0.123c1.105-0.649,2.335-1.762,3.564-3.344
			c1.698-2.16,3.165-4.509,4.506-7.14c0.761-1.347,1.639-3.396,2.753-6.025l1.93-5.795c0.054-0.288,0.235-0.35,0.525-0.118
			L198.294,310.456z"/>
	</g>
	<g>
		<path fill="#52AD32" d="M221.122,318.588c-0.411,0.816-1.348,2.344-2.925,4.505c-1.586,2.17-2.755,3.629-3.517,4.448
			c-3.1,3.456-5.206,5.205-6.321,5.271c-1.523,0.06-3.273-0.29-5.269-1.18c-1.984-0.87-3.275-1.983-3.919-3.273
			c-0.755-1.519-1.112-3.396-1.112-5.563c0-1.403,0.121-2.632,0.408-3.683c0.879-3.212,2.752-6.086,5.614-8.486
			c2.058-1.523,3.988-2.286,5.917-2.286c0.998,0,1.814,0.301,2.339,0.88c0.175,0.177,0.766,0.936,1.758,2.279
			c0.994,1.351,1.579,2.119,1.643,2.279c0.171,0.408,0.229,0.712,0.171,0.885c-0.115,0.646-0.41,1.285-0.875,1.935
			c-0.415,0.643-0.938,1.342-1.644,2.042c-0.642,0.707-1.578,1.523-2.689,2.519c-5.792,4.51-8.656,6.794-8.716,6.851v0.764
			c0.114,0.994,0.995,1.811,2.688,2.46c1.698,0.639,2.754,0.757,3.275,0.343c4.511-3.446,8.431-8.132,11.709-14.098L221.122,318.588
			z M201.983,326.252c-0.058,0.181-0.058,0.354-0.058,0.646c1.284-1.113,3.275-3.16,6.021-6.086c2.752-2.99,4.215-4.861,4.511-5.678
			c0.523-1.748,0.583-2.992,0.289-3.748c-0.82-0.172-2.099,0.473-3.798,1.933c-1.698,1.461-3.224,3.337-4.567,5.619
			C203.037,321.332,202.213,323.737,201.983,326.252"/>
	</g>
	<g>
		<path fill="#52AD32" d="M231.129,318.882l-8.079,13.864l-0.937-0.224c-0.528-0.124-1.113-0.358-1.869-0.7
			c-1.702-0.766-2.703-1.704-3.107-2.758c-0.117-0.234-0.175-0.586-0.175-1.11c-0.061-0.173-0.061-0.527-0.061-0.935v-0.298
			c0.061-1.111,0.18-1.928,0.236-2.453c0.589-4.338,1.869-9.424,3.801-15.223c0.359-0.704,3.691-11.24,3.983-10.945l5.327,2.171
			l-4.564,11.765c-1.463,4.269-2.517,7.662-3.158,10.295c-0.179,0.526-0.357,1.294-0.586,2.284l-0.59,2.754
			c0,0.058-0.292,1.522-0.35,1.578c-0.114,0.999,0.059,1.578,0.473,1.755l0.468,0.178c4.389-7.193,7.197-11.998,8.368-14.28
			L231.129,318.882z"/>
	</g>
	<g>
		<path fill="#52AD32" d="M270.989,310.456l0.11,0.758c-0.052,0.056-0.585,1.577-1.693,4.688c-1.116,3.035-2.107,5.491-3.048,7.362
			c-0.992,1.935-2.101,3.865-3.335,5.746c-0.53,0.816-1.286,1.691-2.277,2.622c-1.004,0.89-1.814,1.354-2.519,1.412
			c-0.355,0-0.88-0.115-1.526-0.408c-0.877-0.409-1.757-0.944-2.749-1.64c-0.648-0.412-1.055-0.938-1.343-1.524
			c-0.298-0.408-0.468-0.94-0.589-1.691c-0.179-0.822-0.229-1.407-0.291-1.704c-0.293,0.469-1.584,1.995-2.105,2.753
			c-0.533,0.759-1.35,1.575-2.406,2.567c-1.052,1.001-1.748,1.532-2.167,1.647c-0.232,0.056-0.694-0.115-1.4-0.408
			c-0.818-0.348-1.639-0.878-2.517-1.64c-0.529-0.412-0.936-0.938-1.17-1.524c-0.234-0.698-0.354-1.285-0.41-1.691
			c-0.061-1.349-0.116-2.346-0.061-2.987c0.181-3.806,1.054-8.194,2.756-13.17c0.061-0.354,0.349-1.11,0.755-2.226
			c0.47-1.169,0.766-1.692,0.941-1.643c1.288,0.702,3.978,1.817,5.268,2.461l-0.407,0.935c-0.532,1.346-1.115,2.93-1.702,4.799
			l-1.287,4.569l-0.999,4.274c-0.523,2.284-0.822,3.685-0.873,4.098c-0.175,0.996-0.175,1.634,0,1.935l0.819,0.408
			c1.227-0.768,2.453-1.874,3.569-3.344c1.291-1.754,2.396-3.451,3.337-5.033c0.294-2.278,0.939-4.803,1.935-7.547
			c0.992-2.75,1.809-4.218,2.455-4.33l4.036,2.338c-0.876,1.291-1.756,3.454-2.576,6.552c-0.875,2.927-1.289,5.974-1.289,9.194
			c0,0.763,0.18,1.341,0.47,1.638l1.344,0.695c0.887-0.518,1.879-1.925,3.105-4.089c0.758-1.29,1.52-2.808,2.284-4.564l1.873-4.858
			l2.696-8.433c0.226-1.111,0.994-0.173,1.516,0.064L270.989,310.456z"/>
	</g>
	<g>
		<path fill="#52AD32" d="M275.433,307.991l5.209,2.401l-0.352,0.877c-0.82,2.049-1.412,3.568-1.698,4.681
			c-0.289,0.946-0.757,2.401-1.289,4.45l-0.994,4.101c-0.529,2.162-0.824,3.51-0.877,3.978c-0.234,1.171-0.117,1.876,0.408,2.103
			l0.412,0.245c4.274-6.97,7.078-11.773,8.367-14.284l0.878,2.275l-8.079,13.819l-0.939-0.179c-0.291-0.06-0.932-0.294-1.924-0.699
			c-1.586-0.82-2.635-1.759-3.05-2.748c-0.116-0.181-0.175-0.532-0.237-1.175c-0.054-1.229,0.062-2.573,0.237-4.16
			c0.415-3.919,1.346-8.192,2.689-12.695C274.675,309.453,275.084,308.458,275.433,307.991 M279.995,297.573l3.808,3.626
			c-1.117,1.407-2.105,2.871-2.989,4.045l-2.862-1.468c0.114-2.05,0.696-3.922,1.757-5.732L279.995,297.573z"/>
	</g>
	<g>
		<path fill="#52AD32" d="M296.792,318.882l-8.08,13.864l-0.934-0.224l-0.932-0.295l-1.464-0.65
			c-0.353-0.18-0.823-0.521-1.462-0.992c-0.589-0.526-0.938-1.057-1.12-1.521c-0.115-0.234-0.168-0.586-0.228-1.11
			c-0.178-1.988,0.349-5.565,1.583-10.773l0.34-1.406l1.348-4.794h-2.34l0.59-1.527l2.221-0.122c0.469-1.689,1.169-3.745,2.11-6.195
			c0.937-2.521,1.635-4.279,2.167-5.273l5.327,2.178c-1.346,3.44-2.522,6.433-3.456,8.943c1.695-0.109,2.691-0.288,2.868-0.462
			l-0.822,2.339h-2.746l-0.467,1.176c-1.584,4.736-2.636,8.129-3.168,10.295l-0.524,2.284c-0.523,2.168-0.818,3.516-0.878,3.917
			c-0.175,1.236-0.061,1.935,0.407,2.17l0.471,0.178c4.391-7.193,7.201-11.998,8.37-14.28L296.792,318.882z"/>
	</g>
	<g>
		<path fill="#52AD32" d="M322.422,318.938l-8.064,13.875l-0.938-0.241c-0.649-0.113-1.232-0.344-1.872-0.698
			c-1.702-0.761-2.698-1.703-3.104-2.752c-0.237-0.529-0.295-1.58-0.237-3.044l0.237-2.221c0.048-0.764,0.235-1.932,0.524-3.456
			c0.29-1.575,0.589-2.926,0.878-4.096l0.347-1.695l0.769-2.702c-0.651,0.706-1.461,1.938-1.644,2.114l-1.869,2.578
			c-1.642,2.282-3.278,5.034-4.976,8.194c-0.063,0.17-0.414,0.753-0.999,1.869c-0.525,1.118-0.937,1.815-1.11,2.167
			c-1.517,2.862-2.399,4.215-2.628,4.156c-0.409-0.057-1.057-0.464-1.937-1.228c-1.348-1.057-1.932-2.812-1.755-5.272
			c0.116-1.809,0.467-4.155,1.051-7.082c0.764-3.283,1.816-6.844,3.162-10.709c0.47-1.35,1.229-3.28,2.22-5.849
			c1.062-2.637,1.699-4.219,1.997-4.746l5.499,2.046c-0.523,1.006-1.343,3.225-2.574,6.67l-1.814,5.272
			c-0.644,1.814-1.579,4.62-2.691,8.431c-1.111,3.803-1.697,6.144-1.876,6.96l1.993-3.445l1.351-2.231
			c5.028-8.246,8.081-12.698,9.189-13.461c0.171-0.416,1.047,0,1.223,0.065c0.238,0,1.172,0.523,1.23,0.576l2.747,1.645
			c0.414,0.232,0.588,0.523,0.47,0.873c-0.812,2.056-1.402,3.575-1.695,4.688l-1.286,4.391l-0.999,4.153l-0.467,1.874l-0.408,1.985
			c-0.234,1.177-0.234,1.875,0.408,2.171l0.467,0.176c0.06-0.176,0.705-1.229,1.876-3.157c1.229-1.997,2.454-4.095,3.687-6.272
			c1.287-2.16,2.224-3.798,2.75-4.854L322.422,318.938z"/>
	</g>
	<g>
		<path fill="#52AD32" d="M335.304,337.022c-0.41-0.177-1.703-0.585-2.34-0.876c-1.108-0.411-2.104-1.169-1.995-2.398
			c0.358-4.684,1.288-10.483,2.873-17.327c1.574-6.848,3.392-12.06,5.382-15.509l5.682,1.694c-1.525,2.395-2.925,5.502-4.281,9.19
			c-1.339,3.687-2.215,6.729-2.741,9.191l10.42-9.837c1.931-1.82,3.979-3.977,6.141-6.609c0.881-1.062,2.048-2.284,2.048-3.39
			c0.116-1.355-0.235-2.703-0.991-3.985c-1.287-2.046-2.11-3.04-2.402-3.04l-1.813,0.348c-0.821,0.173-2.811,0.936-6.032,2.226
			c-3.155,1.283-6.733,2.984-10.653,5.088l-4.276-5.271c3.982-1.751,7.851-3.103,11.597-4.031c3.795-0.995,6.555-1.519,8.366-1.586
			l2.636-0.108l4.271,5.376c2.869,3.979,3.921,7.313,3.63,8.314l-0.29,0.826c-0.414,0.874-0.761,1.509-1.461,2.398l-0.821,0.875
			l-1.058,1.049l-0.992,0.939c-0.467,0.411-1.64,1.338-3.572,2.749c-1.935,1.407-3.331,2.396-4.325,2.986
			c-5.572,3.455-9.137,5.498-10.717,6.137C336.828,325.081,336.067,329.946,335.304,337.022"/>
	</g>
	<g>
		<path fill="#52AD32" d="M383.294,318.882l-8.068,13.864l-0.941-0.224c-0.646-0.124-1.229-0.358-1.879-0.7
			c-0.691-0.296-1.343-0.71-1.921-1.237c-0.527-0.415-0.94-0.936-1.179-1.521c-0.116-0.234-0.171-0.586-0.171-1.11
			c-0.06-0.708,0-2.11,0.171-4.217c0.054-0.051,0.054-0.176,0.054-0.355l-5.432,9.364l-0.941-0.224
			c-0.578-0.124-1.224-0.358-1.932-0.7c-0.646-0.296-1.283-0.71-1.935-1.237c-0.578-0.526-0.935-1.057-1.105-1.521
			c-0.12-0.234-0.179-0.586-0.242-1.11c-0.055-1.171,0.063-2.574,0.242-4.217c0.408-3.867,1.347-8.082,2.684-12.645
			c0.466-1.575,0.885-2.635,1.234-3.044c0.641,0.358,1.583,0.825,2.811,1.35c1.23,0.525,2.047,0.934,2.395,1.115l-0.348,0.872
			c-0.753,1.811-1.285,3.34-1.691,4.628c-0.408,1.167-0.827,2.628-1.292,4.442l-0.995,4.159c-0.527,2.168-0.817,3.516-0.879,3.917
			c-0.231,1.236-0.111,1.935,0.408,2.105l0.411,0.242c1.582-2.401,4.038-6.558,7.376-12.467c0.466-2.342,1.112-4.793,1.929-7.32
			c0.532-1.694,0.883-2.686,1.172-3.044c1.285,0.7,3.983,1.815,5.268,2.465c-0.177,0.17-0.296,0.467-0.408,0.872
			c-0.528,1.175-1.048,2.695-1.698,4.628l-1.227,4.442c-0.468,1.703-0.824,3.105-1.053,4.159l-0.882,3.917
			c-0.226,1.177-0.226,1.873,0.41,2.105l0.472,0.242c0.056-0.178,0.702-1.23,1.871-3.162c1.23-1.987,2.452-4.093,3.684-6.265
			c1.291-2.16,2.229-3.805,2.749-4.854L383.294,318.882z"/>
	</g>
	<g>
		<path fill="#52AD32" d="M399.682,310.456c0.413,0.228,0.531,0.524,0.413,0.872c-0.065,0.24-0.64,1.523-1.691,3.918
			c-1.058,2.353-1.65,3.807-1.757,4.336l-3.104-2.873l0.467-2.277c0.171-0.994,0.404-1.871,0.645-2.692
			c-0.706,0.993-1.175,1.698-1.407,2.105c-0.408,0.533-0.931,1.401-1.637,2.576c-0.464,0.76-1.286,2.221-2.396,4.276
			c-1.114,2.047-2.227,4.211-3.405,6.493l-1.864,3.689l-1.174,2.05l-3.394-2.228c0-0.064,0.238-1.29,0.698-3.572
			c0.413-2.28,0.996-5.029,1.644-8.136c0.641-3.156,1.229-5.557,1.639-7.197c0.71-2.398,1.164-3.688,1.346-3.748
			c0.641,0.358,1.577,0.825,2.806,1.35c1.229,0.525,2.05,0.934,2.406,1.115l-0.356,0.872c-0.761,1.811-1.287,3.34-1.695,4.628
			c-0.415,1.167-0.817,2.628-1.287,4.442l-0.997,3.983l0.41-0.583l1.17-2.223c4.451-8.315,7.143-12.821,8.022-13.469
			c0.175-0.174,0.524-0.116,0.931,0.125L399.682,310.456z"/>
	</g>
	<g>
		<path fill="#52AD32" d="M417.475,314.845c0,3.097-0.464,5.967-1.457,8.717c-1.236,3.102-2.466,5.33-3.751,6.672
			c-1.229,1.399-3.924,2.579-5.794,2.513c0,0-1.931-1.349-3.044-2.108c-0.697,4.34-1.104,8.317-1.229,11.95l-4.156-1.231
			c-0.059-1.584-0.114-2.754-0.114-3.516c0-9.187,1.99-19.016,5.917-29.551l4.735,1.985l-0.648,1.813l3.104-3.215
			c0.704-0.709,1.054-0.645,1.817-0.179l4.099,2.104c0.108,0.182,0.17,0.294,0.17,0.471
			C417.358,312.379,417.475,313.557,417.475,314.845 M406.356,331.347c1.635,1.052,6.438-12.232,6.438-18.028
			c0-1.579-0.359-2.401-0.997-2.572c-0.7-0.177-2.28,1.112-4.678,3.979c-1.342,4.504-2.527,9.358-3.455,14.569L406.356,331.347z"/>
	</g>
	<g>
		<path fill="#52AD32" d="M437.144,318.295c0,3.339-0.94,6.613-2.756,9.836c-1.049,1.815-2.338,3.158-3.862,3.975
			c-0.76,0.417-1.572,0.588-2.459,0.588c-2.282,0-4.741-1.296-5.968-2.866c-1.466-1.937-2.227-4.217-2.227-6.906
			c0-1.354,0.179-2.99,0.585-4.807c0.645-3.038,1.874-5.617,3.745-7.658c1.995-2.049,4.044-2.75,6.152-2.114
			c1.695,0.471,3.217,1.462,4.502,2.928c1.294,1.463,1.99,3.043,2.166,4.744C437.086,317.121,437.144,317.886,437.144,318.295
			 M430.234,327.954c1.463-3.046,2.571-6.794,3.337-11.245c0.112-0.638,0.175-1.398,0.175-2.217c0-1.641-0.285-2.753-0.824-3.278
			c-0.872-0.758-1.517-1.111-1.928-1.111c-0.64,0-1.582,1.111-2.81,3.335c-1.108,2.046-1.933,4.098-2.461,6.145
			c-0.642,2.393-0.99,4.977-0.99,7.727c0,0.879,0,1.521,0.055,1.926c0.06,1.171,0.532,2,1.464,2.458
			C427.479,332.228,428.767,330.997,430.234,327.954"/>
	</g>
	<g>
		<path fill="#52AD32" d="M457.037,313.438c-0.164,1.579-0.58,2.983-1.347,4.211c-0.752,1.233-1.403,1.817-1.931,1.817
			c-0.811,0-3.86-1.46-3.685-1.645l1.345-1.222c1.644-1.466,2.927-3.102,3.631-5.031c0.062-1.466-1.175-2.051-2.512-1.586
			c-1.351,0.531-3.167,1.988-5.39,4.51c-2.165,2.515-3.28,4.219-3.214,5.14c0,0.066,0.988,0.533,2.92,1.3l5.91,2.28
			c1.995,0.758,3.047,1.228,3.112,1.289c0.516,0.526,0.754,1.169,0.754,1.932c0,0.994-0.469,2.159-1.345,3.567
			c-1.171,1.692-2.989,2.637-5.388,2.872c-0.763,0.058-1.34,0.114-1.701,0.114c-1.223,0-2.512-0.174-3.852-0.464
			c-0.411-0.124-1.181-0.472-2.234-0.996c-2.105-1.172-3.16-2.696-3.094-4.507c0.109-1.757,1.049-3.163,2.749-4.275l2.217,1.404
			c1.471,0.879,2.23,1.348,2.291,1.348c-1.814,1.582-2.811,2.811-2.991,3.685c-0.231,1.053,0.473,1.876,2.117,2.452
			c0.874,0.302,1.865,0.06,2.983-0.753c1.109-0.88,1.983-1.815,2.563-2.808c0.944-1.586,1.35-2.81,1.292-3.571
			c0-0.125-2.165-1.001-6.554-2.637c-4.322-1.637-6.494-2.571-6.494-2.75v-1c0.059-0.872,0.232-1.693,0.528-2.459
			c0.407-0.99,0.817-1.811,1.338-2.459c1.115-1.457,2.583-2.683,4.451-3.679c1.933-0.996,3.808-1.526,5.615-1.526
			c2.047,0,3.693,0.704,4.921,2.111C456.873,310.98,457.215,312.089,457.037,313.438"/>
	</g>
	<g>
		<path fill="#52AD32" d="M481.741,318.588c-0.409,0.816-1.349,2.344-2.929,4.505c-1.577,2.17-2.749,3.629-3.509,4.448
			c-3.102,3.456-5.21,5.205-6.319,5.271c-1.528,0.06-3.278-0.29-5.27-1.18c-1.986-0.87-3.281-1.983-3.921-3.273
			c-0.764-1.519-1.111-3.396-1.111-5.563c0-1.403,0.117-2.632,0.401-3.683c0.882-3.212,2.755-6.086,5.623-8.486
			c2.043-1.523,3.979-2.286,5.906-2.286c1,0,1.822,0.301,2.342,0.88c0.183,0.177,0.766,0.936,1.763,2.279
			c0.995,1.351,1.576,2.119,1.636,2.279c0.174,0.408,0.235,0.712,0.174,0.885c-0.115,0.646-0.406,1.285-0.876,1.935
			c-0.411,0.643-0.934,1.342-1.638,2.042c-0.645,0.707-1.578,1.523-2.689,2.519c-5.798,4.51-8.669,6.794-8.721,6.851v0.764
			c0.118,0.994,0.991,1.811,2.689,2.46c1.701,0.639,2.756,0.757,3.274,0.343c4.512-3.446,8.427-8.132,11.713-14.098L481.741,318.588
			z M462.604,326.252c-0.062,0.181-0.062,0.354-0.062,0.646c1.291-1.113,3.275-3.16,6.025-6.086c2.757-2.99,4.216-4.861,4.512-5.678
			c0.518-1.748,0.578-2.992,0.29-3.748c-0.824-0.172-2.108,0.473-3.811,1.933c-1.694,1.461-3.211,3.337-4.561,5.619
			C463.653,321.332,462.839,323.737,462.604,326.252"/>
	</g>
</g>
<g>
	<g>
		<path fill="#E72F2F" d="M433.091,203.875c1.775-8.753,2.701-17.81,2.701-27.08c0-74.944-60.747-135.702-135.695-135.702
			c-74.945,0-135.699,60.758-135.699,135.702c0,9.271,0.935,18.327,2.701,27.08H433.091z"/>
	</g>
	<g>
		<polygon fill="#363D46" points="114.894,205.1 167.317,198.116 194.878,158.126 214.679,158.126 229.047,147.25 245.743,152.298 
			260.112,115.416 283.012,118.131 299.325,85.906 331.931,130.554 343.587,124.344 359.113,151.136 368.434,138.315 
			395.604,158.897 407.648,153.851 422.015,168.217 434.437,198.502 485.309,205.1 		"/>
	</g>
	<g>
		<polygon fill="#E72F2F" points="300.873,95.996 311.366,130.943 311.366,144.144 327.669,154.627 344.748,158.897 
			380.467,189.566 342.417,130.163 331.931,135.991 		"/>
	</g>
	<g>
		<polygon fill="#E72F2F" points="369.604,142.786 385.907,168.994 392.899,161.616 		"/>
	</g>
	<g>
		<polygon fill="#E72F2F" points="408.047,159.674 409.975,174.813 406.102,193.458 423.183,188.019 418.911,172.875 		"/>
	</g>
	<g>
		<polygon fill="#E72F2F" points="262.825,118.521 279.909,120.848 265.542,146.476 271.363,127.447 		"/>
	</g>
	<g>
		<polygon fill="#E72F2F" points="229.823,151.136 241.857,155.893 221.669,189.566 229.432,161.616 		"/>
	</g>
	<g>
		<polygon fill="#E72F2F" points="201.087,162.001 211.181,162.001 196.043,176.566 		"/>
	</g>
	<g>
		<path fill="#363D46" d="M142.951,204.986c-1.664-9.292-2.508-18.824-2.508-28.336c0-88.035,71.619-159.656,159.654-159.656
			c88.034,0,159.659,71.622,159.659,159.656c0,9.507-0.849,19.038-2.51,28.336l-12.415-2.224c1.533-8.568,2.305-17.354,2.305-26.112
			c0-81.078-65.964-147.046-147.039-147.046c-81.078,0-147.037,65.969-147.037,147.046c0,8.765,0.772,17.552,2.312,26.112
			L142.951,204.986z"/>
	</g>
</g>
</svg>
